<?xml version="1.0" encoding="UTF-8" standalone="no"?>
<svg
   width="256"
   height="256"
   viewBox="0 0 425.55844 425.984"
   preserveAspectRatio="xMidYMid"
   version="1.1"
   id="svg4"
   sodipodi:docname="Apache_kafka.svg"
   inkscape:export-filename="..\..\..\..\..\market\market\connector\kafka-connector\logo.png"
   inkscape:export-xdpi="96"
   inkscape:export-ydpi="96"
   inkscape:version="1.2.2 (732a01da63, 2022-12-09)"
   xmlns:inkscape="http://www.inkscape.org/namespaces/inkscape"
   xmlns:sodipodi="http://sodipodi.sourceforge.net/DTD/sodipodi-0.dtd"
   xmlns="http://www.w3.org/2000/svg"
   xmlns:svg="http://www.w3.org/2000/svg">
  <defs
     id="defs8" />
  <sodipodi:namedview
     id="namedview6"
     pagecolor="#ffffff"
     bordercolor="#000000"
     borderopacity="0.25"
     inkscape:showpageshadow="2"
     inkscape:pageopacity="0.0"
     inkscape:pagecheckerboard="true"
     inkscape:deskcolor="#d1d1d1"
     showgrid="false"
     inkscape:zoom="3.1484375"
     inkscape:cx="62.888337"
     inkscape:cy="128"
     inkscape:window-width="1920"
     inkscape:window-height="1009"
     inkscape:window-x="2152"
     inkscape:window-y="1924"
     inkscape:window-maximized="1"
     inkscape:current-layer="svg4" />
  <path
     d="m 286.59522,235.385 c -16.186,0 -30.697,7.171 -40.634,18.461 l -25.463,-18.026 c 2.703,-7.442 4.255,-15.433 4.255,-23.797 0,-8.219 -1.498,-16.076 -4.112,-23.408 l 25.406,-17.835 c 9.936,11.233 24.409,18.365 40.548,18.365 29.875,0 54.184,-24.305 54.184,-54.184 0,-29.879 -24.309,-54.184001 -54.184,-54.184001 -29.875,0 -54.184,24.305001 -54.184,54.184001 0,5.348 0.808,10.505 2.258,15.389 l -25.423,17.844 c -10.62,-13.175 -25.911,-22.374 -43.333,-25.182 v -30.64 c 24.544,-5.155 43.037,-26.962001 43.037,-53.019001 0,-29.879 -24.309,-54.1839994 -54.184,-54.1839994 -29.875,0 -54.184,24.3049994 -54.184,54.1839994 0,25.708 18.014,47.246001 42.067,52.769001 v 31.038 c -32.826,5.762 -57.87,34.41 -57.87,68.863 0,34.621 25.292,63.374 58.355,68.94 v 32.774 c -24.299,5.341 -42.552,27.011 -42.552,52.894 0,29.879 24.309,54.184 54.184,54.184 29.875,0 54.184,-24.305 54.184,-54.184 0,-25.883 -18.253,-47.553 -42.552,-52.894 v -32.775 a 69.965,69.965 0 0 0 42.6,-24.776 l 25.633,18.143 c -1.423,4.84 -2.22,9.946 -2.22,15.24 0,29.879 24.309,54.184 54.184,54.184 29.875,0 54.184,-24.305 54.184,-54.184 0,-29.879 -24.309,-54.184 -54.184,-54.184 z m 0,-126.695 c 14.487,0 26.27,11.788 26.27,26.271 0,14.483 -11.783,26.27 -26.27,26.27 -14.487,0 -26.27,-11.787 -26.27,-26.27 0,-14.483 11.783,-26.271 26.27,-26.271 z m -158.1,-49.337001 c 0,-14.483 11.784,-26.27 26.271,-26.27 14.487,0 26.27,11.787 26.27,26.27 0,14.483 -11.783,26.27 -26.27,26.27 -14.487,0 -26.271,-11.787 -26.271,-26.27 z m 52.541,307.278001 c 0,14.483 -11.783,26.27 -26.27,26.27 -14.487,0 -26.271,-11.787 -26.271,-26.27 0,-14.483 11.784,-26.27 26.271,-26.27 14.487,0 26.27,11.787 26.27,26.27 z m -26.272,-117.97 c -20.205,0 -36.642,-16.434 -36.642,-36.638 0,-20.205 16.437,-36.642 36.642,-36.642 20.204,0 36.641,16.437 36.641,36.642 0,20.204 -16.437,36.638 -36.641,36.638 z m 131.831,67.179 c -14.487,0 -26.27,-11.788 -26.27,-26.271 0,-14.483 11.783,-26.27 26.27,-26.27 14.487,0 26.27,11.787 26.27,26.27 0,14.483 -11.783,26.271 -26.27,26.271 z"
     style="fill:#231f20;stroke:#ffffff;stroke-opacity:1;stroke-width:1.88674016;stroke-dasharray:none"
     id="path2" />
</svg>
